<mxfile host="app.diagrams.net" modified="2021-01-18T05:01:05.716Z" agent="5.0 (Macintosh; Intel Mac OS X 10_15_7) AppleWebKit/537.36 (KHTML, like Gecko) Chrome/87.0.4280.141 Safari/537.36" etag="EbicZm34Xcm-iajSvsRX" version="14.2.4" type="github">
  <diagram id="WwSOnB_FdPrwlYixW2Kx" name="Page-1">
    <mxGraphModel dx="1255" dy="681" grid="1" gridSize="10" guides="1" tooltips="1" connect="1" arrows="1" fold="1" page="1" pageScale="1" pageWidth="827" pageHeight="1169" background="#114B5F" math="0" shadow="0">
      <root>
        <mxCell id="0" />
        <mxCell id="1" parent="0" />
        <mxCell id="PfYtfeVrxTqz0i9ZNfW3-1" value="" style="shape=table;html=1;whiteSpace=wrap;startSize=0;container=1;collapsible=0;childLayout=tableLayout;comic=1;fontFamily=Architects Daughter;fontSource=https%3A%2F%2Ffonts.googleapis.com%2Fcss%3Ffamily%3DArchitects%2BDaughter;fillColor=#F45B69;strokeColor=#028090;fontColor=#E4FDE1;" parent="1" vertex="1">
          <mxGeometry x="150" y="200" width="600" height="40" as="geometry" />
        </mxCell>
        <mxCell id="PfYtfeVrxTqz0i9ZNfW3-2" value="" style="shape=partialRectangle;html=1;whiteSpace=wrap;collapsible=0;dropTarget=0;pointerEvents=0;fillColor=none;top=0;left=0;bottom=0;right=0;points=[[0,0.5],[1,0.5]];portConstraint=eastwest;strokeColor=#028090;fontColor=#E4FDE1;" parent="PfYtfeVrxTqz0i9ZNfW3-1" vertex="1">
          <mxGeometry width="600" height="40" as="geometry" />
        </mxCell>
        <mxCell id="PfYtfeVrxTqz0i9ZNfW3-3" value="&lt;font face=&quot;Architects Daughter&quot; data-font-src=&quot;https://fonts.googleapis.com/css?family=Architects+Daughter&quot;&gt;1&lt;/font&gt;" style="shape=partialRectangle;html=1;whiteSpace=wrap;connectable=0;overflow=hidden;top=0;left=0;bottom=0;right=0;fillColor=#F45B69;fixDash=0;strokeColor=#028090;fontColor=#E4FDE1;" parent="PfYtfeVrxTqz0i9ZNfW3-2" vertex="1">
          <mxGeometry width="60" height="40" as="geometry" />
        </mxCell>
        <mxCell id="PfYtfeVrxTqz0i9ZNfW3-4" value="" style="shape=partialRectangle;html=1;whiteSpace=wrap;connectable=0;overflow=hidden;fillColor=none;top=0;left=0;bottom=0;right=0;fontFamily=Architects Daughter;fontSource=https%3A%2F%2Ffonts.googleapis.com%2Fcss%3Ffamily%3DArchitects%2BDaughter;strokeColor=#028090;fontColor=#E4FDE1;" parent="PfYtfeVrxTqz0i9ZNfW3-2" vertex="1">
          <mxGeometry x="60" width="60" height="40" as="geometry" />
        </mxCell>
        <mxCell id="PfYtfeVrxTqz0i9ZNfW3-5" value="" style="shape=partialRectangle;html=1;whiteSpace=wrap;connectable=0;overflow=hidden;fillColor=none;top=0;left=0;bottom=0;right=0;strokeColor=#028090;fontColor=#E4FDE1;" parent="PfYtfeVrxTqz0i9ZNfW3-2" vertex="1">
          <mxGeometry x="120" width="60" height="40" as="geometry" />
        </mxCell>
        <mxCell id="PfYtfeVrxTqz0i9ZNfW3-6" value="" style="shape=partialRectangle;html=1;whiteSpace=wrap;connectable=0;overflow=hidden;fillColor=none;top=0;left=0;bottom=0;right=0;strokeColor=#028090;fontColor=#E4FDE1;" parent="PfYtfeVrxTqz0i9ZNfW3-2" vertex="1">
          <mxGeometry x="180" width="60" height="40" as="geometry" />
        </mxCell>
        <mxCell id="PfYtfeVrxTqz0i9ZNfW3-7" value="" style="shape=partialRectangle;html=1;whiteSpace=wrap;connectable=0;overflow=hidden;fillColor=none;top=0;left=0;bottom=0;right=0;strokeColor=#028090;fontColor=#E4FDE1;" parent="PfYtfeVrxTqz0i9ZNfW3-2" vertex="1">
          <mxGeometry x="240" width="60" height="40" as="geometry" />
        </mxCell>
        <mxCell id="PfYtfeVrxTqz0i9ZNfW3-8" value="..." style="shape=partialRectangle;html=1;whiteSpace=wrap;connectable=0;overflow=hidden;fillColor=none;top=0;left=0;bottom=0;right=0;strokeColor=#028090;fontColor=#E4FDE1;" parent="PfYtfeVrxTqz0i9ZNfW3-2" vertex="1">
          <mxGeometry x="300" width="60" height="40" as="geometry" />
        </mxCell>
        <mxCell id="PfYtfeVrxTqz0i9ZNfW3-9" value="" style="shape=partialRectangle;html=1;whiteSpace=wrap;connectable=0;overflow=hidden;fillColor=none;top=0;left=0;bottom=0;right=0;strokeColor=#028090;fontColor=#E4FDE1;" parent="PfYtfeVrxTqz0i9ZNfW3-2" vertex="1">
          <mxGeometry x="360" width="60" height="40" as="geometry" />
        </mxCell>
        <mxCell id="PfYtfeVrxTqz0i9ZNfW3-10" value="" style="shape=partialRectangle;html=1;whiteSpace=wrap;connectable=0;overflow=hidden;fillColor=none;top=0;left=0;bottom=0;right=0;strokeColor=#028090;fontColor=#E4FDE1;" parent="PfYtfeVrxTqz0i9ZNfW3-2" vertex="1">
          <mxGeometry x="420" width="60" height="40" as="geometry" />
        </mxCell>
        <mxCell id="PfYtfeVrxTqz0i9ZNfW3-11" value="" style="shape=partialRectangle;html=1;whiteSpace=wrap;connectable=0;overflow=hidden;fillColor=none;top=0;left=0;bottom=0;right=0;strokeColor=#028090;fontColor=#E4FDE1;" parent="PfYtfeVrxTqz0i9ZNfW3-2" vertex="1">
          <mxGeometry x="480" width="60" height="40" as="geometry" />
        </mxCell>
        <mxCell id="PfYtfeVrxTqz0i9ZNfW3-12" value="" style="shape=partialRectangle;html=1;whiteSpace=wrap;connectable=0;overflow=hidden;fillColor=none;top=0;left=0;bottom=0;right=0;strokeColor=#028090;fontColor=#E4FDE1;" parent="PfYtfeVrxTqz0i9ZNfW3-2" vertex="1">
          <mxGeometry x="540" width="60" height="40" as="geometry" />
        </mxCell>
        <mxCell id="PfYtfeVrxTqz0i9ZNfW3-13" value="tagged pointer" style="text;html=1;align=center;verticalAlign=middle;resizable=0;points=[];autosize=1;fontFamily=Architects Daughter;fontColor=#E4FDE1;" parent="1" vertex="1">
          <mxGeometry x="20" y="210" width="100" height="20" as="geometry" />
        </mxCell>
        <mxCell id="PfYtfeVrxTqz0i9ZNfW3-14" value="" style="shape=curlyBracket;whiteSpace=wrap;html=1;rounded=1;comic=1;fillColor=#F45B69;fontFamily=Architects Daughter;fontSource=https%3A%2F%2Ffonts.googleapis.com%2Fcss%3Ffamily%3DArchitects%2BDaughter;direction=north;strokeColor=#028090;fontColor=#E4FDE1;" parent="1" vertex="1">
          <mxGeometry x="150" y="250" width="600" height="20" as="geometry" />
        </mxCell>
        <mxCell id="PfYtfeVrxTqz0i9ZNfW3-15" value="64 bits" style="text;html=1;align=center;verticalAlign=middle;resizable=0;points=[];autosize=1;fontFamily=Architects Daughter;fontColor=#E4FDE1;" parent="1" vertex="1">
          <mxGeometry x="420" y="280" width="60" height="20" as="geometry" />
        </mxCell>
        <mxCell id="PfYtfeVrxTqz0i9ZNfW3-29" value="extend tagged pointer" style="text;html=1;align=center;verticalAlign=middle;resizable=0;points=[];autosize=1;fontFamily=Architects Daughter;fontColor=#E4FDE1;" parent="1" vertex="1">
          <mxGeometry y="400" width="140" height="20" as="geometry" />
        </mxCell>
        <mxCell id="PfYtfeVrxTqz0i9ZNfW3-45" value="" style="shape=curlyBracket;whiteSpace=wrap;html=1;rounded=1;dashed=1;comic=1;fillColor=#F45B69;fontFamily=Architects Daughter;fontSource=https%3A%2F%2Ffonts.googleapis.com%2Fcss%3Ffamily%3DArchitects%2BDaughter;direction=south;strokeColor=#028090;fontColor=#E4FDE1;" parent="1" vertex="1">
          <mxGeometry x="150" y="160" width="240" height="30" as="geometry" />
        </mxCell>
        <mxCell id="PfYtfeVrxTqz0i9ZNfW3-46" value="index / 4 bits" style="text;html=1;align=center;verticalAlign=middle;resizable=0;points=[];autosize=1;fontFamily=Architects Daughter;fontColor=#E4FDE1;" parent="1" vertex="1">
          <mxGeometry x="225" y="140" width="90" height="20" as="geometry" />
        </mxCell>
        <mxCell id="PfYtfeVrxTqz0i9ZNfW3-71" value="" style="shape=table;html=1;whiteSpace=wrap;startSize=0;container=1;collapsible=0;childLayout=tableLayout;comic=1;fontFamily=Architects Daughter;fontSource=https%3A%2F%2Ffonts.googleapis.com%2Fcss%3Ffamily%3DArchitects%2BDaughter;fillColor=#F45B69;strokeColor=#028090;fontColor=#E4FDE1;" parent="1" vertex="1">
          <mxGeometry x="150" y="390" width="600" height="40" as="geometry" />
        </mxCell>
        <mxCell id="PfYtfeVrxTqz0i9ZNfW3-72" value="" style="shape=partialRectangle;html=1;whiteSpace=wrap;collapsible=0;dropTarget=0;pointerEvents=0;fillColor=none;top=0;left=0;bottom=0;right=0;points=[[0,0.5],[1,0.5]];portConstraint=eastwest;strokeColor=#028090;fontColor=#E4FDE1;" parent="PfYtfeVrxTqz0i9ZNfW3-71" vertex="1">
          <mxGeometry width="600" height="40" as="geometry" />
        </mxCell>
        <mxCell id="PfYtfeVrxTqz0i9ZNfW3-73" value="&lt;font face=&quot;Architects Daughter&quot; data-font-src=&quot;https://fonts.googleapis.com/css?family=Architects+Daughter&quot;&gt;1&lt;/font&gt;" style="shape=partialRectangle;html=1;whiteSpace=wrap;connectable=0;overflow=hidden;top=0;left=0;bottom=0;right=0;fillColor=#F45B69;fixDash=0;strokeColor=#028090;fontColor=#E4FDE1;" parent="PfYtfeVrxTqz0i9ZNfW3-72" vertex="1">
          <mxGeometry width="60" height="40" as="geometry" />
        </mxCell>
        <mxCell id="PfYtfeVrxTqz0i9ZNfW3-74" value="1" style="shape=partialRectangle;html=1;whiteSpace=wrap;connectable=0;overflow=hidden;fillColor=none;top=0;left=0;bottom=0;right=0;fontFamily=Architects Daughter;fontSource=https%3A%2F%2Ffonts.googleapis.com%2Fcss%3Ffamily%3DArchitects%2BDaughter;strokeColor=#028090;fontColor=#E4FDE1;" parent="PfYtfeVrxTqz0i9ZNfW3-72" vertex="1">
          <mxGeometry x="60" width="60" height="40" as="geometry" />
        </mxCell>
        <mxCell id="PfYtfeVrxTqz0i9ZNfW3-75" value="1" style="shape=partialRectangle;html=1;whiteSpace=wrap;connectable=0;overflow=hidden;fillColor=none;top=0;left=0;bottom=0;right=0;fontFamily=Architects Daughter;fontSource=https%3A%2F%2Ffonts.googleapis.com%2Fcss%3Ffamily%3DArchitects%2BDaughter;strokeColor=#028090;fontColor=#E4FDE1;" parent="PfYtfeVrxTqz0i9ZNfW3-72" vertex="1">
          <mxGeometry x="120" width="60" height="40" as="geometry" />
        </mxCell>
        <mxCell id="PfYtfeVrxTqz0i9ZNfW3-76" value="1" style="shape=partialRectangle;html=1;whiteSpace=wrap;connectable=0;overflow=hidden;fillColor=none;top=0;left=0;bottom=0;right=0;fontFamily=Architects Daughter;fontSource=https%3A%2F%2Ffonts.googleapis.com%2Fcss%3Ffamily%3DArchitects%2BDaughter;strokeColor=#028090;fontColor=#E4FDE1;" parent="PfYtfeVrxTqz0i9ZNfW3-72" vertex="1">
          <mxGeometry x="180" width="60" height="40" as="geometry" />
        </mxCell>
        <mxCell id="PfYtfeVrxTqz0i9ZNfW3-77" value="" style="shape=partialRectangle;html=1;whiteSpace=wrap;connectable=0;overflow=hidden;fillColor=none;top=0;left=0;bottom=0;right=0;strokeColor=#028090;fontColor=#E4FDE1;" parent="PfYtfeVrxTqz0i9ZNfW3-72" vertex="1">
          <mxGeometry x="240" width="60" height="40" as="geometry" />
        </mxCell>
        <mxCell id="PfYtfeVrxTqz0i9ZNfW3-78" value="..." style="shape=partialRectangle;html=1;whiteSpace=wrap;connectable=0;overflow=hidden;fillColor=none;top=0;left=0;bottom=0;right=0;strokeColor=#028090;fontColor=#E4FDE1;" parent="PfYtfeVrxTqz0i9ZNfW3-72" vertex="1">
          <mxGeometry x="300" width="60" height="40" as="geometry" />
        </mxCell>
        <mxCell id="PfYtfeVrxTqz0i9ZNfW3-79" value="" style="shape=partialRectangle;html=1;whiteSpace=wrap;connectable=0;overflow=hidden;fillColor=none;top=0;left=0;bottom=0;right=0;strokeColor=#028090;fontColor=#E4FDE1;" parent="PfYtfeVrxTqz0i9ZNfW3-72" vertex="1">
          <mxGeometry x="360" width="60" height="40" as="geometry" />
        </mxCell>
        <mxCell id="PfYtfeVrxTqz0i9ZNfW3-80" value="" style="shape=partialRectangle;html=1;whiteSpace=wrap;connectable=0;overflow=hidden;fillColor=none;top=0;left=0;bottom=0;right=0;strokeColor=#028090;fontColor=#E4FDE1;" parent="PfYtfeVrxTqz0i9ZNfW3-72" vertex="1">
          <mxGeometry x="420" width="60" height="40" as="geometry" />
        </mxCell>
        <mxCell id="PfYtfeVrxTqz0i9ZNfW3-81" value="" style="shape=partialRectangle;html=1;whiteSpace=wrap;connectable=0;overflow=hidden;fillColor=none;top=0;left=0;bottom=0;right=0;strokeColor=#028090;fontColor=#E4FDE1;" parent="PfYtfeVrxTqz0i9ZNfW3-72" vertex="1">
          <mxGeometry x="480" width="60" height="40" as="geometry" />
        </mxCell>
        <mxCell id="PfYtfeVrxTqz0i9ZNfW3-82" value="" style="shape=partialRectangle;html=1;whiteSpace=wrap;connectable=0;overflow=hidden;fillColor=none;top=0;left=0;bottom=0;right=0;strokeColor=#028090;fontColor=#E4FDE1;" parent="PfYtfeVrxTqz0i9ZNfW3-72" vertex="1">
          <mxGeometry x="540" width="60" height="40" as="geometry" />
        </mxCell>
        <mxCell id="PfYtfeVrxTqz0i9ZNfW3-83" value="" style="shape=curlyBracket;whiteSpace=wrap;html=1;rounded=1;comic=1;fillColor=#F45B69;fontFamily=Architects Daughter;fontSource=https%3A%2F%2Ffonts.googleapis.com%2Fcss%3Ffamily%3DArchitects%2BDaughter;direction=north;strokeColor=#028090;fontColor=#E4FDE1;" parent="1" vertex="1">
          <mxGeometry x="150" y="440" width="600" height="20" as="geometry" />
        </mxCell>
        <mxCell id="PfYtfeVrxTqz0i9ZNfW3-84" value="64 bits" style="text;html=1;align=center;verticalAlign=middle;resizable=0;points=[];autosize=1;fontFamily=Architects Daughter;fontColor=#E4FDE1;" parent="1" vertex="1">
          <mxGeometry x="420" y="470" width="60" height="20" as="geometry" />
        </mxCell>
        <mxCell id="PfYtfeVrxTqz0i9ZNfW3-85" value="" style="shape=curlyBracket;whiteSpace=wrap;html=1;rounded=1;dashed=1;comic=1;fillColor=#F45B69;fontFamily=Architects Daughter;fontSource=https%3A%2F%2Ffonts.googleapis.com%2Fcss%3Ffamily%3DArchitects%2BDaughter;direction=south;strokeColor=#028090;fontColor=#E4FDE1;" parent="1" vertex="1">
          <mxGeometry x="390" y="350" width="240" height="30" as="geometry" />
        </mxCell>
        <mxCell id="PfYtfeVrxTqz0i9ZNfW3-86" value="index, / 8 bits" style="text;html=1;align=center;verticalAlign=middle;resizable=0;points=[];autosize=1;fontFamily=Architects Daughter;fontColor=#E4FDE1;" parent="1" vertex="1">
          <mxGeometry x="465" y="330" width="90" height="20" as="geometry" />
        </mxCell>
      </root>
    </mxGraphModel>
  </diagram>
</mxfile>
